<svg width="80" height="80" viewBox="0 0 80 80" fill="none" xmlns="http://www.w3.org/2000/svg">
<rect width="80" height="80" rx="40" fill="#3865AC"/>
<path d="M57.9928 34.9919C57.9928 35.3091 57.8053 35.6551 57.4305 36.03L49.5803 43.6855L51.4401 54.4985C51.4545 54.5994 51.4617 54.7436 51.4617 54.931C51.4617 55.2337 51.3861 55.4896 51.2347 55.6987C51.0833 55.9077 50.8634 56.0123 50.5751 56.0123C50.3012 56.0123 50.0128 55.9258 49.7101 55.7528L40 50.6491L30.29 55.7528C29.9728 55.9258 29.6845 56.0123 29.425 56.0123C29.1222 56.0123 28.8952 55.9077 28.7438 55.6987C28.5924 55.4896 28.5167 55.2337 28.5167 54.931C28.5167 54.8445 28.5311 54.7003 28.56 54.4985L30.4198 43.6855L22.548 36.03C22.1875 35.6407 22.0073 35.2947 22.0073 34.9919C22.0073 34.4585 22.411 34.1269 23.2184 33.9971L34.0746 32.4185L38.9404 22.5787C39.2143 21.9876 39.5675 21.692 40 21.692C40.4326 21.692 40.7858 21.9876 41.0597 22.5787L45.9255 32.4185L56.7817 33.9971C57.5891 34.1269 57.9928 34.4585 57.9928 34.9919Z" fill="#F6B650"/>
</svg>
