<svg width="80" height="80" viewBox="0 0 80 80" fill="none" xmlns="http://www.w3.org/2000/svg">
<rect width="80" height="80" rx="40" fill="#3865AC"/>
<g clip-path="url(#clip0_4_123)">
<path d="M40.9428 55.904C40.6883 56.1585 40.3773 56.2857 40.0098 56.2857C39.6422 56.2857 39.3312 56.1585 39.0767 55.904L25.8446 43.1384C25.7032 43.0253 25.5088 42.8415 25.2614 42.587C25.014 42.3326 24.6217 41.8696 24.0845 41.1981C23.5473 40.5266 23.0667 39.8374 22.6426 39.1306C22.2185 38.4237 21.8403 37.5684 21.5081 36.5647C21.1759 35.561 21.0098 34.5856 21.0098 33.6384C21.0098 30.5283 21.9075 28.0967 23.7028 26.3437C25.4982 24.5908 27.9793 23.7143 31.1459 23.7143C32.0224 23.7143 32.9166 23.8662 33.8284 24.1702C34.7402 24.4741 35.5884 24.8841 36.373 25.4001C37.1576 25.9161 37.8327 26.4003 38.3982 26.8527C38.9636 27.3051 39.5008 27.7857 40.0098 28.2946C40.5187 27.7857 41.0559 27.3051 41.6214 26.8527C42.1868 26.4003 42.8619 25.9161 43.6465 25.4001C44.4311 24.8841 45.2793 24.4741 46.1911 24.1702C47.103 23.8662 47.9971 23.7143 48.8736 23.7143C52.0403 23.7143 54.5213 24.5908 56.3167 26.3437C58.1121 28.0967 59.0098 30.5283 59.0098 33.6384C59.0098 36.7626 57.3911 39.9434 54.1537 43.1808L40.9428 55.904Z" fill="#F6B650"/>
</g>
<defs>
<clipPath id="clip0_4_123">
<rect width="38.02" height="38" fill="white" transform="matrix(1 0 0 -1 21 59)"/>
</clipPath>
</defs>
</svg>
